<?xml version="1.0" standalone="no"?>
<!DOCTYPE svg PUBLIC "-//W3C//DTD SVG 20010904//EN"
 "http://www.w3.org/TR/2001/REC-SVG-20010904/DTD/svg10.dtd">
<svg version="1.0" xmlns="http://www.w3.org/2000/svg"
 width="512.000000pt" height="512.000000pt" viewBox="0 0 512.000000 512.000000"
 preserveAspectRatio="xMidYMid meet">
<metadata>
Created by potrace 1.14, written by Peter Selinger 2001-2017
</metadata>
<g transform="translate(0.000000,512.000000) scale(0.100000,-0.100000)"
fill="#000000" stroke="none">
<path d="M2807 4713 c-104 -152 -170 -215 -252 -239 -46 -13 -51 -17 -52 -42
0 -102 -23 -176 -68 -224 -33 -35 -65 -43 -118 -29 -69 20 -70 19 -79 -24 -11
-58 -47 -120 -80 -140 -31 -18 -112 -15 -132 5 -28 28 -33 9 -32 -122 1 -127
0 -136 -27 -190 -54 -110 -117 -124 -230 -49 -34 22 -65 37 -70 32 -5 -5 3
-47 18 -94 14 -48 28 -97 31 -109 23 -107 32 -188 30 -271 -3 -85 -7 -105 -32
-155 -39 -75 -83 -101 -141 -84 -55 16 -116 59 -191 134 -58 57 -64 61 -76 46
-18 -25 -74 -45 -116 -43 -19 2 -63 10 -98 20 l-62 18 -23 -25 c-83 -90 -435
-37 -682 103 -47 26 -65 29 -65 8 0 -4 12 -20 28 -36 105 -113 195 -241 228
-322 9 -24 18 -68 18 -97 1 -45 5 -58 27 -77 51 -44 89 -108 89 -149 0 -34 -5
-41 -35 -59 -19 -12 -35 -24 -35 -28 0 -4 22 -30 49 -58 97 -100 128 -188 81
-238 -13 -14 -41 -33 -62 -42 -21 -9 -38 -22 -38 -28 0 -6 35 -27 78 -47 51
-24 92 -52 117 -79 34 -38 37 -45 32 -86 -12 -110 -162 -202 -403 -248 -43 -9
-82 -19 -86 -23 -17 -17 11 -30 76 -36 116 -11 294 -56 385 -97 83 -38 145
-89 167 -139 13 -28 24 -40 38 -40 31 0 203 -48 255 -71 93 -41 138 -86 148
-147 3 -23 7 -23 89 17 159 78 341 143 458 165 11 2 62 12 111 21 106 21 275
24 326 6 67 -22 94 -77 104 -213 3 -46 7 -99 10 -118 3 -19 7 -55 10 -80 9
-65 51 -260 81 -370 14 -52 27 -99 28 -105 6 -26 29 -91 37 -100 7 -10 154
-13 163 -4 2 2 -16 51 -40 108 -90 209 -138 386 -160 586 -10 92 -10 126 -1
180 19 107 72 135 247 129 228 -6 546 -101 812 -242 4 -2 12 14 17 35 12 45
37 74 89 106 58 36 182 78 277 93 43 6 65 19 65 38 0 23 65 75 131 105 65 29
189 65 265 76 98 15 99 34 5 58 -79 21 -148 66 -164 107 -8 20 -25 34 -62 49
-96 40 -141 108 -115 176 16 42 71 106 129 151 54 41 60 54 35 75 -57 47 -36
126 59 221 61 62 68 72 59 91 -6 12 -13 29 -15 37 -7 22 20 81 53 115 21 22
28 40 28 66 0 75 73 161 225 263 48 33 87 63 87 67 0 17 -19 17 -81 3 -105
-25 -147 -29 -304 -29 -146 0 -151 1 -208 29 -52 27 -61 28 -80 16 -50 -32
-84 -44 -132 -48 -47 -4 -53 -1 -83 29 -18 18 -32 39 -32 46 0 22 -18 15 -91
-33 -181 -118 -282 -125 -331 -25 -19 38 -22 61 -21 134 1 71 -2 97 -18 126
-43 84 -41 264 6 440 30 113 24 127 -35 85 -92 -65 -130 -78 -184 -63 -36 10
-65 37 -93 89 -25 45 -32 72 -40 161 -3 41 -14 86 -24 103 -23 40 -42 142 -38
200 4 47 -2 56 -40 56 -24 0 -74 47 -96 90 -34 66 -45 131 -43 264 2 81 -2
131 -8 133 -6 2 -40 -41 -77 -94z"/>
</g>
</svg>
