<svg width="313" height="313" viewBox="0 0 313 313" fill="none" xmlns="http://www.w3.org/2000/svg">
<circle cx="156.5" cy="156.5" r="156.5" fill="#D65F28"/>
<path d="M133.807 56.1249L122.627 99.9999H112.227L105.857 75.8199C105.077 73.0249 104.622 69.9049 104.167 66.7849H104.102C103.777 69.8399 103.257 72.6999 102.477 75.6249L96.1068 99.9999H86.2918L75.1118 56.1249H84.1468L90.1268 80.3699C90.8418 83.2299 91.3618 86.2199 91.7518 89.2749H91.8168C92.2718 86.3499 92.7268 83.4249 93.5068 80.6299L100.202 56.1249H109.172L115.932 80.4999C116.582 82.9049 117.297 85.9599 117.687 89.0149H117.752C118.207 85.9599 118.727 83.2299 119.377 80.6299L125.357 56.1249H133.807ZM148.652 57.8799C148.652 60.6099 146.312 62.8849 143.452 62.8849C140.592 62.8849 138.317 60.6749 138.317 57.8799C138.317 55.0849 140.592 52.8099 143.452 52.8099C146.312 52.8099 148.652 55.0199 148.652 57.8799ZM147.612 99.9999H139.292V67.6949H147.612V99.9999ZM184.637 99.9999H176.382V79.3299C176.382 76.0149 175.472 73.9999 172.417 73.9999C168.192 73.9999 164.877 78.7449 164.877 84.3999V99.9999H156.557V67.6949H164.422C164.422 69.1899 164.292 71.7899 163.967 73.4799H164.032C165.982 69.7099 169.752 67.0449 175.017 67.0449C182.297 67.0449 184.637 71.6599 184.637 77.3149V99.9999ZM233.001 99.9999H225.136C225.136 98.1149 225.201 96.2299 225.461 94.5399L225.396 94.4749C223.836 98.1149 219.871 100.65 215.061 100.65C209.211 100.65 205.831 96.6849 205.831 91.4199C205.831 83.7499 213.241 80.1099 224.486 80.1099V78.4849C224.486 75.1049 222.861 73.3499 218.181 73.3499C215.256 73.3499 211.681 74.3249 209.081 75.6249L207.586 69.0599C210.836 67.8249 215.386 66.9799 219.611 66.9799C229.881 66.9799 232.806 71.2049 232.806 77.8999V91.6799C232.806 94.2799 232.871 97.3349 233.001 99.9999ZM224.486 86.4799V85.5049C216.036 85.5049 213.761 87.7149 213.761 90.5099C213.761 92.6549 215.191 94.2799 217.596 94.2799C221.691 94.2799 224.486 90.3799 224.486 86.4799ZM74.5097 162.92C70.1547 164.675 64.7597 165.65 59.4947 165.65C45.5847 165.65 37.3297 157.46 37.3297 144.07C37.3297 130.29 46.6897 120.475 61.7047 120.475C66.2547 120.475 70.6097 121.255 74.1197 122.36L72.4297 130.03C69.1147 128.73 65.3447 128.015 61.1847 128.015C52.6047 128.015 46.4947 133.475 46.4947 143.29C46.4947 152.585 51.5647 158.045 60.4697 158.045C62.5497 158.045 64.3697 157.785 66.0597 157.265V141.99H74.5097V162.92ZM108.492 165H100.627C100.627 163.115 100.692 161.23 100.952 159.54L100.887 159.475C99.3271 163.115 95.3621 165.65 90.5521 165.65C84.7021 165.65 81.3221 161.685 81.3221 156.42C81.3221 148.75 88.7321 145.11 99.9771 145.11V143.485C99.9771 140.105 98.3521 138.35 93.6721 138.35C90.7471 138.35 87.1721 139.325 84.5721 140.625L83.0771 134.06C86.3271 132.825 90.8771 131.98 95.1021 131.98C105.372 131.98 108.297 136.205 108.297 142.9V156.68C108.297 159.28 108.362 162.335 108.492 165ZM99.9771 151.48V150.505C91.5271 150.505 89.2521 152.715 89.2521 155.51C89.2521 157.655 90.6821 159.28 93.0871 159.28C97.1821 159.28 99.9771 155.38 99.9771 151.48ZM106.802 122.88C106.802 125.35 104.787 127.365 102.317 127.365C99.8471 127.365 97.8321 125.35 97.8321 122.88C97.8321 120.345 99.8471 118.395 102.317 118.395C104.787 118.395 106.802 120.345 106.802 122.88ZM93.6721 122.88C93.6721 125.35 91.6571 127.365 89.1871 127.365C86.7171 127.365 84.7021 125.35 84.7021 122.88C84.7021 120.345 86.7171 118.395 89.1871 118.395C91.6571 118.395 93.6721 120.345 93.6721 122.88ZM135.104 132.045L134.714 140.17C128.734 139 125.744 142.835 125.744 151.805V165H117.424V132.695H125.289C125.289 134.32 125.094 136.92 124.704 139.195H124.834C126.394 135.1 129.514 131.525 135.104 132.045ZM159.484 164.74C157.404 165.26 154.739 165.65 152.464 165.65C145.314 165.65 143.104 163.05 143.104 155.51V139.13H137.514V132.695H143.104V122.75L151.359 120.54V132.695H159.224V139.13H151.359V153.3C151.359 157.46 152.334 158.63 155.194 158.63C156.559 158.63 157.794 158.5 158.899 158.175L159.484 164.74ZM194.064 165H185.809V144.33C185.809 141.015 184.899 139 181.844 139C177.619 139 174.304 143.745 174.304 149.4V165H165.984V132.695H173.849C173.849 134.19 173.719 136.79 173.394 138.48H173.459C175.409 134.71 179.179 132.045 184.444 132.045C191.724 132.045 194.064 136.66 194.064 142.315V165ZM229.572 146.41C229.572 147.515 229.507 148.815 229.312 150.245H209.292C209.227 156.225 212.217 159.15 218.197 159.15C221.252 159.15 224.502 158.5 227.557 157.2L228.467 163.505C224.957 164.935 220.732 165.65 216.767 165.65C206.562 165.65 200.842 160.515 200.842 149.14C200.842 139.26 206.302 131.98 215.987 131.98C225.412 131.98 229.572 138.415 229.572 146.41ZM221.317 144.655C221.447 140.495 219.237 138.09 215.727 138.09C212.282 138.09 209.877 140.625 209.422 144.655H221.317ZM254.186 132.045L253.796 140.17C247.816 139 244.826 142.835 244.826 151.805V165H236.506V132.695H244.371C244.371 134.32 244.176 136.92 243.786 139.195H243.916C245.476 135.1 248.596 131.525 254.186 132.045ZM270.986 118.98L269.751 152.78H262.601L261.236 118.98H270.986ZM271.181 160.775C271.181 163.57 268.971 165.715 266.046 165.715C263.186 165.715 260.976 163.57 260.976 160.775C260.976 158.045 263.186 155.835 266.046 155.835C268.971 155.835 271.181 158.045 271.181 160.775Z" fill="white"/>
<path d="M109.107 271H104.757L97.4074 261.1V271H94.1374V250.75H97.4074V260.14L104.787 250.75H108.807L100.767 260.53L109.107 271ZM115.043 271H111.833V249.1H115.043V271ZM123.374 251.44C123.374 252.55 122.444 253.45 121.334 253.45C120.194 253.45 119.264 252.58 119.264 251.44C119.264 250.33 120.194 249.43 121.334 249.43C122.444 249.43 123.374 250.33 123.374 251.44ZM122.924 271H119.714V256.09H122.924V271ZM137.344 270.49C136.114 271 134.524 271.24 133.024 271.24C129.184 271.24 126.394 269.35 126.394 264.04C126.394 259.3 128.824 255.85 133.804 255.85C135.064 255.85 136.294 256.03 137.284 256.42L136.744 259.15C135.844 258.79 134.734 258.52 133.624 258.52C131.104 258.52 129.754 260.62 129.754 263.68C129.754 266.41 130.714 268.48 133.654 268.48C134.824 268.48 135.934 268.27 136.864 267.82L137.344 270.49ZM152.904 271H148.824L143.724 263.44V271H140.514V249.1H143.724V262.48L148.554 256.09H152.484L146.964 262.9L152.904 271ZM174.763 271H171.583V261.43C171.583 259.57 171.073 258.46 169.363 258.46C167.113 258.46 165.463 260.83 165.463 263.83V271H162.253V249.1H165.463V255.88C165.463 256.81 165.403 258.04 165.193 258.88L165.253 258.91C166.123 257.02 167.893 255.79 170.323 255.79C173.713 255.79 174.763 257.95 174.763 260.56V271ZM191.15 262.24C191.15 262.66 191.12 263.17 191.06 263.8H181.55C181.46 267.19 182.99 268.72 185.96 268.72C187.4 268.72 188.9 268.42 190.25 267.82L190.67 270.34C189.11 270.97 187.25 271.3 185.39 271.3C180.8 271.3 178.25 268.9 178.25 263.65C178.25 259.15 180.71 255.79 185.06 255.79C189.32 255.79 191.15 258.7 191.15 262.24ZM187.94 261.58C188 259.45 186.83 258.16 184.94 258.16C183.14 258.16 181.88 259.48 181.61 261.58H187.94ZM202.542 255.82L202.392 258.97C199.422 258.4 197.982 260.47 197.982 264.94V271H194.772V256.09H197.832C197.832 256.93 197.742 258.25 197.532 259.39H197.592C198.252 257.38 199.752 255.52 202.542 255.82ZM216.843 262.24C216.843 262.66 216.813 263.17 216.753 263.8H207.243C207.153 267.19 208.683 268.72 211.653 268.72C213.093 268.72 214.593 268.42 215.943 267.82L216.363 270.34C214.803 270.97 212.943 271.3 211.083 271.3C206.493 271.3 203.943 268.9 203.943 263.65C203.943 259.15 206.403 255.79 210.753 255.79C215.013 255.79 216.843 258.7 216.843 262.24ZM213.633 261.58C213.693 259.45 212.523 258.16 210.633 258.16C208.833 258.16 207.573 259.48 207.303 261.58H213.633Z" fill="white"/>
<g filter="url(#filter0_d_4_15)">
<path d="M155.314 219.396L144.165 217.112L137.812 213.66C137.812 213.66 123.527 216.957 117.222 208.943C110.917 200.923 115.847 193.23 115.847 193.23C115.847 193.23 123.788 202.244 137.612 204.483L144.091 204.728L149.775 210.366L156.749 214.422L155.314 219.39L155.314 219.396Z" fill="#B5BEC6"/>
<path d="M144.153 202.876C143.403 202.695 142.611 202.627 141.797 202.699C137.75 203.053 134.758 206.608 135.111 210.643C135.163 211.238 135.293 211.81 135.478 212.349C135.383 212.443 135.293 212.531 135.192 212.625C134.9 212.891 134.598 213.169 134.284 213.454C133.963 213.722 133.638 213.996 133.295 214.278C132.951 214.537 132.596 214.808 132.235 215.08C131.867 215.329 131.488 215.585 131.109 215.841C130.715 216.059 130.318 216.3 129.925 216.534C129.562 216.709 129.222 216.887 128.827 217.093L128.022 217.404L127.617 217.559L127.418 217.64L127.318 217.677L127.279 217.692C126.92 217.786 126.563 217.903 126.195 218.015C125.782 218.08 125.374 218.144 124.967 218.209C124.549 218.211 124.13 218.276 123.709 218.256C123.286 218.207 122.858 218.233 122.433 218.156C121.585 218.036 120.723 217.888 119.895 217.663C119.483 217.545 119.063 217.461 118.671 217.313C118.271 217.193 117.87 217.074 117.496 216.929C116.734 216.676 116.027 216.395 115.386 216.142C114.739 215.896 114.172 215.648 113.702 215.449C112.73 215.031 112.176 214.793 112.176 214.793L111.712 215.188C111.712 215.188 111.748 215.34 111.859 215.627C111.965 215.915 112.137 216.312 112.387 216.81C112.642 217.303 112.98 217.885 113.426 218.521C113.643 218.845 113.901 219.165 114.177 219.501C114.448 219.849 114.769 220.176 115.104 220.524C115.784 221.213 116.596 221.909 117.551 222.54C118.502 223.183 119.608 223.761 120.845 224.196C121.452 224.446 122.128 224.564 122.792 224.746C123.464 224.893 124.181 224.956 124.894 225.048C125.615 225.088 126.346 225.058 127.086 225.051C127.813 224.97 128.549 224.865 129.284 224.738C129.901 224.581 130.517 224.419 131.129 224.262C131.798 224.044 132.513 223.764 133.19 223.499C133.808 223.222 134.402 222.935 134.996 222.637C135.558 222.314 136.121 221.99 136.666 221.662C137.185 221.308 137.694 220.96 138.185 220.603C138.657 220.236 139.118 219.869 139.551 219.5C140.403 218.756 141.164 218.015 141.824 217.294C142.228 217.327 142.642 217.331 143.063 217.294C147.11 216.94 150.102 213.385 149.749 209.35C150.169 206.209 155.842 204.254 155.842 204.254L152.606 199.323C149.583 200.045 146.263 201.69 144.135 202.866L144.153 202.876Z" fill="#E1E8EF"/>
<path d="M142.259 207.907C143.414 207.806 144.435 208.66 144.536 209.812C144.637 210.964 143.78 211.983 142.624 212.084C141.469 212.185 140.448 211.331 140.347 210.179C140.246 209.027 141.103 208.008 142.259 207.907Z" fill="#7C6E61"/>
<path d="M186.518 218.513C189.161 219.156 189.888 222.352 189.242 224.993C188.595 227.629 185.694 230.204 183.051 229.56L157.112 222.246C154.469 221.603 152.849 218.948 153.495 216.307C154.142 213.672 156.806 212.055 159.454 212.698L186.519 218.519L186.518 218.513Z" fill="url(#paint0_linear_4_15)"/>
<path d="M179.04 181.88C181.475 180.661 184.107 182.627 185.328 185.047C186.55 187.473 186.013 191.3 183.585 192.524L159.07 203.72C156.642 204.939 153.677 203.964 152.45 201.538C151.228 199.112 152.209 196.161 154.643 194.942L179.04 181.875L179.04 181.88Z" fill="url(#paint1_linear_4_15)"/>
</g>
<defs>
<filter id="filter0_d_4_15" x="107.712" y="181.508" width="85.7515" height="56.1517" filterUnits="userSpaceOnUse" color-interpolation-filters="sRGB">
<feFlood flood-opacity="0" result="BackgroundImageFix"/>
<feColorMatrix in="SourceAlpha" type="matrix" values="0 0 0 0 0 0 0 0 0 0 0 0 0 0 0 0 0 0 127 0" result="hardAlpha"/>
<feOffset dy="4"/>
<feGaussianBlur stdDeviation="2"/>
<feComposite in2="hardAlpha" operator="out"/>
<feColorMatrix type="matrix" values="0 0 0 0 0 0 0 0 0 0 0 0 0 0 0 0 0 0 0.25 0"/>
<feBlend mode="normal" in2="BackgroundImageFix" result="effect1_dropShadow_4_15"/>
<feBlend mode="normal" in="SourceGraphic" in2="effect1_dropShadow_4_15" result="shape"/>
</filter>
<linearGradient id="paint0_linear_4_15" x1="172.321" y1="230.682" x2="170.638" y2="211.451" gradientUnits="userSpaceOnUse">
<stop stop-color="#71AF48"/>
<stop offset="0.12" stop-color="#7BBC51"/>
<stop offset="0.35" stop-color="#97DE69"/>
<stop offset="0.42" stop-color="#A1EA71"/>
<stop offset="1" stop-color="#71AF48"/>
</linearGradient>
<linearGradient id="paint1_linear_4_15" x1="169.785" y1="203.138" x2="167.988" y2="182.602" gradientUnits="userSpaceOnUse">
<stop stop-color="#71AF48"/>
<stop offset="0.12" stop-color="#7BBC51"/>
<stop offset="0.35" stop-color="#97DE69"/>
<stop offset="0.42" stop-color="#A1EA71"/>
<stop offset="1" stop-color="#71AF48"/>
</linearGradient>
</defs>
</svg>
